<svg width="122" height="122" viewBox="0 0 122 122" fill="none" xmlns="http://www.w3.org/2000/svg">
<path fill-rule="evenodd" clip-rule="evenodd" d="M89.5926 32.2738C86.0878 28.7698 80.3818 28.7698 76.8773 32.2738C74.8256 34.3249 73.8855 37.2518 74.3557 40.1148V40.1362C74.5052 41.0548 74.3982 42.0164 73.9922 42.9136C73.4579 44.0676 72.4965 44.9005 71.385 45.3065C70.2738 45.7124 68.9917 45.6913 67.8377 45.157C61.3198 42.1445 53.5197 43.5332 48.4336 48.6182C43.3475 53.7032 41.9585 61.5018 44.9717 68.018C45.5271 69.1933 45.5271 70.475 45.0998 71.6076C44.6724 72.697 43.8602 73.6373 42.7062 74.1713C42.0866 74.4706 41.4241 74.5986 40.7617 74.5986C40.441 74.5986 40.1421 74.5559 39.8428 74.4917H39.6933C36.8724 74.0857 34.0943 75.0046 32.0642 77.0343C30.3758 78.7434 29.4355 81.0082 29.4355 83.401C29.4355 85.8156 30.3544 88.0587 32.0642 89.7681C35.5686 93.2721 41.2746 93.2721 44.7794 89.7681C46.8309 87.7169 47.7712 84.79 47.3011 81.927C47.2797 81.7773 47.2797 81.6278 47.3011 81.4783C47.2583 80.7092 47.3864 79.9401 47.7284 79.1921C48.2625 78.0385 49.2028 77.2052 50.3143 76.7992C51.4468 76.3719 52.7075 76.3933 53.8829 76.9273C60.4009 79.9401 68.2009 78.5511 73.287 73.4661C78.3731 68.3814 79.7622 60.5829 76.749 54.0664C76.2146 52.9341 76.1935 51.6735 76.5995 50.5627C77.0054 49.4301 77.8388 48.4474 79.0142 47.9133C79.8478 47.5288 80.7239 47.4218 81.5572 47.5288C81.6856 47.5074 81.8351 47.5074 81.9634 47.5288C84.7841 47.9347 87.5622 47.0159 89.5926 44.9861C93.0971 41.4821 93.0971 35.7778 89.5926 32.2738ZM67.9872 54.0878C71.8765 57.9763 71.8765 64.2792 67.9872 68.1677C64.0979 72.056 57.7936 72.056 53.9043 68.1677C50.015 64.2792 50.015 57.9763 53.9043 54.0878C57.7936 50.1992 64.0979 50.1992 67.9872 54.0878ZM121.049 61.1383C121.049 27.9152 94.1016 0.973389 60.871 0.973389C27.6404 0.973389 0.692627 27.8938 0.692627 61.1383C0.692627 94.3829 27.619 121.325 60.871 121.325C94.123 121.325 121.049 94.3615 121.049 61.1383ZM92.9476 29.0903C98.2687 34.4102 98.2687 43.0206 92.9476 48.3407C90.9603 50.3276 88.5025 51.5668 85.9595 52.1008C89.5284 61.7365 87.199 72.7398 79.8691 80.0682C74.8044 85.1318 67.9872 87.8025 61.0847 87.8025C57.9859 87.8025 54.866 87.2468 51.8742 86.136C51.3827 88.6997 50.1217 91.1782 48.1344 93.1651C42.8132 98.4852 34.201 98.4852 28.8799 93.1651C23.5587 87.8453 23.5587 79.2349 28.8799 73.9148C30.8674 71.9279 33.3034 70.6887 35.8679 70.1761C32.2136 60.5187 34.5216 49.4515 41.8943 42.0803C49.267 34.7094 60.3367 32.4019 69.9745 36.034C70.4875 33.4916 71.7271 31.056 73.693 29.0903C79.0141 23.7703 87.6264 23.7703 92.9476 29.0903Z" fill="#5E25FD"/>
</svg>
